<svg id="avatars-basic" viewBox="0 0 64 64" width="100%" height="100%" xmlns="http://www.w3.org/2000/svg"><g fill="none" fill-rule="evenodd"><path d="M39.071068 4.071068l20.857864 20.857864c3.905243 3.905243 3.905243 10.236893 0 14.142136L39.071068 59.928932c-3.905243 3.905243-10.236893 3.905243-14.142136 0L4.071068 39.071068c-3.905243-3.905243-3.905243-10.236893 0-14.142136L24.928932 4.071068c3.905243-3.905243 10.236893-3.905243 14.142136 0z" stroke="#FFF" stroke-width="2" fill="#FFF"/><path d="M36.949748 5.363961C35.582912 3.997126 33.791455 3.313709 32 3.313709c-1.791456 0-3.582912.683417-4.949748 2.050252L5.363961 27.050252C3.997126 28.417088 3.313709 30.208544 3.313709 32c0 1.791456.683417 3.582912 2.050252 4.949748l21.686291 21.686291C28.417088 60.002874 30.208544 60.686292 32 60.686292c1.791456 0 3.582912-.683418 4.949748-2.050253l21.686291-21.686291C60.002874 35.582912 60.686292 33.791455 60.686292 32c0-1.791456-.683418-3.582912-2.050253-4.949748L36.949748 5.363961z" stroke="#8A9499" stroke-width="2"/><path d="M32 29.5c4.970563 0 9 4.029437 9 9v6.4375C41 46.076587 40.076587 47 38.9375 47h-13.875C23.923413 47 23 46.076587 23 44.9375V38.5c0-4.970563 4.029437-9 9-9zm0-1.5c3.58985 0 6.5-2.91015 6.5-6.5S35.58985 15 32 15s-6.5 2.91015-6.5 6.5S28.41015 28 32 28z" fill="#8A9499"/></g></svg>
