<svg id="avatars-enterprise" viewBox="0 0 64 64" width="100%" height="100%" xmlns="http://www.w3.org/2000/svg" xmlns:xlink="http://www.w3.org/1999/xlink"><defs><path d="M36.338837 2.089474L52.67977 9.958852c2.74187 1.320415 4.733256 3.817534 5.410442 6.78448l4.035877 17.682333c.677186 2.966945-.033531 6.080801-1.930964 8.460107l-11.308277 14.18013c-1.897433 2.379306-4.775068 3.765102-7.818314 3.765102H22.931466c-3.043246 0-5.920881-1.385796-7.818314-3.765102L3.804875 42.885772c-1.897433-2.379306-2.60815-5.493162-1.930964-8.460107l4.035877-17.682333c.677186-2.966946 2.668572-5.464064 5.410442-6.78448l16.340933-7.869378c2.74187-1.320415 5.935804-1.320415 8.677674 0z" id="a"/></defs><g fill="none" fill-rule="evenodd"><mask id="b" fill="#fff"><use xlink:href="#a"/></mask><use stroke="#FFF" stroke-width="2" fill="#3D474D" xlink:href="#a"/><path d="M33.028991 12.285014l8 4.8C41.631402 17.446461 42 18.097474 42 18.8v49.735239c0 .702525-.368598 1.353539-.971009 1.714985l-8 4.8c-.633364.38002-1.424618.38002-2.057982 0l-8-4.8C22.368597 69.888778 22 69.237764 22 68.53524V18.8c0-.702526.368598-1.35354.971008-1.714986l8-4.8c.633365-.380019 1.424619-.380019 2.057983 0z" fill="#FFF" opacity=".5" mask="url(#b)"/><path d="M23.028992 35.285014l8 4.8C31.631401 40.446461 32 41.097474 32 41.8v29.735239c0 .702525-.368598 1.353539-.971008 1.714985l-8 4.8c-.633365.38002-1.424619.38002-2.057983 0l-8-4.8C12.368597 72.888778 12 72.237764 12 71.53524V41.8c0-.702526.368598-1.35354.971008-1.714986l8-4.8c.633365-.380019 1.424619-.380019 2.057983 0z" fill="#FFF" opacity=".8" mask="url(#b)"/><path d="M43.028991 26.285014l8 4.8C51.631402 31.446461 52 32.097474 52 32.8v29.735239c0 .702525-.368598 1.353539-.971009 1.714985l-8 4.8c-.633364.38002-1.424618.38002-2.057982 0l-8-4.8C32.368598 63.888778 32 63.237764 32 62.535238V32.8c0-.702526.368598-1.35354.971009-1.714986l8-4.8c.633364-.380019 1.424618-.380019 2.057982 0z" fill="#FFF" mask="url(#b)"/></g></svg>
