<?xml version="1.0" encoding="UTF-8"?> <svg xmlns="http://www.w3.org/2000/svg" xmlns:xlink="http://www.w3.org/1999/xlink" width="52px" height="48px" viewBox="0 0 52 48" version="1.1"><title>Feature Icon</title><defs><filter color-interpolation-filters="auto" id="filter-1"><feColorMatrix in="SourceGraphic" type="matrix" values="0 0 0 0 1.000000 0 0 0 0 0.830000 0 0 0 0 0.150000 0 0 0 1.000000 0"></feColorMatrix></filter><filter color-interpolation-filters="auto" id="filter-2"><feColorMatrix in="SourceGraphic" type="matrix" values="0 0 0 0 0.239216 0 0 0 0 0.278431 0 0 0 0 0.301961 0 0 0 1.000000 0"></feColorMatrix></filter><filter color-interpolation-filters="auto" id="filter-3"><feColorMatrix in="SourceGraphic" type="matrix" values="0 0 0 0 1.000000 0 0 0 0 0.830000 0 0 0 0 0.150000 0 0 0 1.000000 0"></feColorMatrix></filter></defs><g id="Mara" stroke="none" stroke-width="1" fill="none" fill-rule="evenodd" stroke-linecap="round"><g id="MN-Knowledge-base" transform="translate(-842.000000, -844.000000)"><g id="Feature-Icon" transform="translate(770.000000, 824.000000)" filter="url(#filter-1)"><g id="Icons/GenericPlaceholder" transform="translate(70.000000, 16.000000)" filter="url(#filter-2)"><g filter="url(#filter-3)" id="Rectangle-2"><g transform="translate(4.666667, 7.000000)"><path d="M37.6930685,1.66203437e-15 C40.8133841,-9.65689831e-16 41.9448859,0.324889639 43.0856266,0.934964463 C44.2263674,1.54503929 45.1216274,2.4402993 45.7317022,3.58104004 C46.341777,4.72178078 46.6666667,5.85328261 46.6666667,8.9735982 L46.6666667,28.3597351 C46.6666667,31.4800507 46.341777,32.6115526 45.7317022,33.7522933 C45.1216274,34.893034 44.2263674,35.788294 43.0856266,36.3983689 C41.9448859,37.0084437 40.8133841,37.3333333 37.6930685,37.3333333 L37.333,37.333 L37.3333333,42 L23.3333333,42 L23.3333333,42 L9.33333333,42 L9.333,37.333 L8.9735982,37.3333333 C5.85328261,37.3333333 4.72178078,37.0084437 3.58104004,36.3983689 C2.4402993,35.788294 1.54503929,34.893034 0.934964463,33.7522933 C0.324889639,32.6115526 4.03880753e-16,31.4800507 -6.95113141e-16,28.3597351 L-2.11720998e-16,8.9735982 C1.23015997e-16,5.85328261 0.324889639,4.72178078 0.934964463,3.58104004 C1.54503929,2.4402993 2.4402993,1.54503929 3.58104004,0.934964463 C4.72178078,0.324889639 5.85328261,7.37545317e-16 8.9735982,-1.26937825e-15 L37.6930685,1.66203437e-15 Z" id="Combined-Shape" stroke="#000000" stroke-width="4.66666667" stroke-linejoin="round"></path><path d="M16.3333333,25.6666667 C20.1993266,25.6666667 23.3333333,28.8006734 23.3333333,32.6666667 L23.3333333,42 L23.3333333,42 L9.33333333,42 L9.33333333,32.6666667 C9.33333333,28.8006734 12.4673401,25.6666667 16.3333333,25.6666667 Z" id="Rectangle" stroke="#000000" stroke-width="4.66666667" stroke-linejoin="round"></path><path d="M30.3333333,30.3333333 C34.1993266,30.3333333 37.3333333,33.4673401 37.3333333,37.3333333 L37.3333333,42 L37.3333333,42 L23.3333333,42 L23.3333333,37.3333333 C23.3333333,33.4673401 26.4673401,30.3333333 30.3333333,30.3333333 Z" id="Rectangle" stroke="#000000" stroke-width="4.66666667" stroke-linejoin="round"></path><circle id="Oval" stroke="#000000" stroke-width="4.66666667" cx="30.3333333" cy="18.6666667" r="4.66666667"></circle><circle id="Oval" stroke="#000000" stroke-width="4.66666667" cx="16.3333333" cy="14" r="4.66666667"></circle></g></g></g></g></g></g></svg> 