<?xml version="1.0" encoding="UTF-8"?> <svg xmlns="http://www.w3.org/2000/svg" xmlns:xlink="http://www.w3.org/1999/xlink" width="52px" height="52px" viewBox="0 0 52 52" version="1.1"><title>Feature Icon</title><defs><filter color-interpolation-filters="auto" id="filter-1"><feColorMatrix in="SourceGraphic" type="matrix" values="0 0 0 0 0.000000 0 0 0 0 0.666667 0 0 0 0 1.000000 0 0 0 1.000000 0"></feColorMatrix></filter><filter color-interpolation-filters="auto" id="filter-2"><feColorMatrix in="SourceGraphic" type="matrix" values="0 0 0 0 0.239216 0 0 0 0 0.278431 0 0 0 0 0.301961 0 0 0 1.000000 0"></feColorMatrix></filter></defs><g id="Mara" stroke="none" stroke-width="1" fill="none" fill-rule="evenodd"><g id="MN-Knowledge-base" transform="translate(-244.000000, -842.000000)"><g id="Feature-Icon" transform="translate(172.000000, 824.000000)" filter="url(#filter-1)"><g id="Icons/GenericPlaceholder" transform="translate(70.000000, 16.000000)" filter="url(#filter-2)"><g><path d="M28,2.33333333 C42.1753086,2.33333333 53.6666667,13.8246914 53.6666667,28 C53.6666667,42.1753086 42.1753086,53.6666667 28,53.6666667 C13.8246914,53.6666667 2.33333333,42.1753086 2.33333333,28 C2.33333333,13.8246914 13.8246914,2.33333333 28,2.33333333 Z M28,7 C16.4020203,7 7,16.4020203 7,28 C7,39.5979797 16.4020203,49 28,49 C39.5979797,49 49,39.5979797 49,28 C49,16.4020203 39.5979797,7 28,7 Z M29.1616907,23.3333333 C29.8087711,23.3333333 30.3333333,23.8582736 30.3333333,24.5079864 L30.3333333,38.4920136 C30.3333333,39.097507 30.7844315,39.5959994 31.3720962,39.659774 L31.5,39.6666667 C32.1013767,39.6666667 32.5964799,40.1177648 32.6598208,40.7054295 L32.6666667,40.8333333 C32.6666667,41.4776655 32.1381243,42 31.5034648,42 L24.4965352,42 C23.8969444,42 23.4033117,41.5489018 23.3401588,40.9612372 L23.3333333,40.8333333 C23.3333333,40.2319566 23.7844315,39.7368535 24.3720962,39.6735125 L24.5,39.6666667 C25.1443322,39.6666667 25.6666667,39.1349456 25.6666667,38.4971145 L25.6666667,26.8362188 C25.6666667,26.2333547 25.2155685,25.7370271 24.6279038,25.6735294 L24.5,25.6666667 C23.8986233,25.6666667 23.4035201,25.2155685 23.3401792,24.6279038 L23.3333333,24.5 C23.3333333,23.8556678 23.859471,23.3333333 24.5049759,23.3333333 L29.1616907,23.3333333 Z M28,12.8333333 C29.9329966,12.8333333 31.5,14.4003367 31.5,16.3333333 C31.5,18.26633 29.9329966,19.8333333 28,19.8333333 C26.0670034,19.8333333 24.5,18.26633 24.5,16.3333333 C24.5,14.4003367 26.0670034,12.8333333 28,12.8333333 Z" id="Combined-Shape" fill="#3D474D"></path></g></g></g></g></g></svg> 