<?xml version="1.0" encoding="UTF-8"?> <svg xmlns="http://www.w3.org/2000/svg" xmlns:xlink="http://www.w3.org/1999/xlink" width="52px" height="56px" viewBox="0 0 52 56" version="1.1"><title>Feature Icon</title><defs><filter color-interpolation-filters="auto" id="filter-1"><feColorMatrix in="SourceGraphic" type="matrix" values="0 0 0 0 0.170000 0 0 0 0 0.850000 0 0 0 0 0.850000 0 0 0 1.000000 0"></feColorMatrix></filter><filter color-interpolation-filters="auto" id="filter-2"><feColorMatrix in="SourceGraphic" type="matrix" values="0 0 0 0 0.239216 0 0 0 0 0.278431 0 0 0 0 0.301961 0 0 0 1.000000 0"></feColorMatrix></filter><filter color-interpolation-filters="auto" id="filter-3"><feColorMatrix in="SourceGraphic" type="matrix" values="0 0 0 0 0.170000 0 0 0 0 0.850000 0 0 0 0 0.850000 0 0 0 1.000000 0"></feColorMatrix></filter></defs><g id="Mara" stroke="none" stroke-width="1" fill="none" fill-rule="evenodd"><g id="MN-Knowledge-base" transform="translate(-1141.000000, -840.000000)"><g id="Feature-Icon" transform="translate(1069.000000, 824.000000)" filter="url(#filter-1)"><g id="Icons/GenericPlaceholder" transform="translate(70.000000, 16.000000)" filter="url(#filter-2)"><g filter="url(#filter-3)" id="Combined-Shape-Copy"><g transform="translate(4.666667, 2.333333)"><path d="M-3.5,17.5 L43.1666667,17.5 C44.4553311,17.5 45.5,18.5446689 45.5,19.8333333 L45.5,31.5 C45.5,32.7886644 44.4553311,33.8333333 43.1666667,33.8333333 L-3.5,33.8333333 C-4.78866442,33.8333333 -5.83333333,32.7886644 -5.83333333,31.5 L-5.83333333,19.8333333 C-5.83333333,18.5446689 -4.78866442,17.5 -3.5,17.5 Z" id="Rectangle" stroke="#333C40" stroke-width="4.66666667" stroke-linecap="round" stroke-linejoin="round" fill-rule="nonzero" transform="translate(19.833333, 25.666667) rotate(90.000000) translate(-19.833333, -25.666667) "></path><rect id="Rectangle-Copy" stroke="#979797" stroke-width="4.66666667" stroke-linejoin="round" x="0" y="7" width="11.6666667" height="44.3333333" rx="1.16666667"></rect><path d="M32.9272465,6.50951956 L42.2605798,6.50951956 C42.904912,6.50951956 43.4272465,7.03185402 43.4272465,7.67618623 L43.4272465,49.6761862 C43.4272465,50.3205184 42.904912,50.8428529 42.2605798,50.8428529 L32.9272465,50.8428529 C32.2829143,50.8428529 31.7605798,50.3205184 31.7605798,49.6761862 L31.7605798,7.67618623 C31.7605798,7.03185402 32.2829143,6.50951956 32.9272465,6.50951956 Z" id="Rectangle-Copy-2" stroke="#979797" stroke-width="4.66666667" stroke-linejoin="round" transform="translate(37.593913, 28.676186) rotate(-10.000000) translate(-37.593913, -28.676186) "></path><line x1="5.83333333" y1="45.5" x2="5.83333333" y2="31.5" id="Path" stroke="#979797" stroke-width="2.33333333" stroke-linecap="round"></line><line x1="39.0352052" y1="44.324847" x2="39.1314615" y2="30.3418196" id="Path-Copy-3" stroke="#979797" stroke-width="2.33333333" stroke-linecap="round" transform="translate(39.083333, 37.333333) rotate(1070.000000) translate(-39.083333, -37.333333) "></line><line x1="19.8333333" y1="45.5" x2="19.8333333" y2="38.5" id="Path-Copy" stroke="#979797" stroke-width="2.33333333" stroke-linecap="round" transform="translate(19.833333, 42.000000) rotate(90.000000) translate(-19.833333, -42.000000) "></line><line x1="19.8333333" y1="49" x2="19.8333333" y2="42" id="Path-Copy-2" stroke="#979797" stroke-width="2.33333333" stroke-linecap="round" transform="translate(19.833333, 45.500000) rotate(90.000000) translate(-19.833333, -45.500000) "></line></g></g></g></g></g></g></svg> 