<?xml version="1.0" encoding="UTF-8"?>
<svg width="24px" height="24px" viewBox="0 0 24 24" version="1.1" xmlns="http://www.w3.org/2000/svg" xmlns:xlink="http://www.w3.org/1999/xlink">
    <title>Icons/LinkShare</title>
    <g id="Icons/LinkShare" stroke="none" stroke-width="1" fill="none" fill-rule="evenodd">
        <path d="M19.3761315,7.0132774 C22.3781475,7.0132774 24.8525126,9.27659567 24.8525126,12.1132774 C24.8525126,14.95086 22.3739909,17.2132774 19.3761315,17.2132774 L14.9860366,17.2132774 C11.9840206,17.2132774 9.50965548,14.9499591 9.50965548,12.1132774 C9.50965548,11.5057642 10.0021423,11.0132774 10.6096555,11.0132774 C11.2171687,11.0132774 11.7096555,11.5057642 11.7096555,12.1132774 C11.7096555,13.6889884 13.15743,15.0132774 14.9860366,15.0132774 L19.3761315,15.0132774 C21.2014932,15.0132774 22.6525126,13.6887736 22.6525126,12.1132774 C22.6525126,10.5375664 21.2047381,9.2132774 19.3761315,9.2132774 L16.4002502,9.2132774 C15.7927369,9.2132774 15.3002502,8.72079063 15.3002502,8.1132774 C15.3002502,7.50576418 15.7927369,7.0132774 16.4002502,7.0132774 L19.3761315,7.0132774 Z M10.0139634,6.51830265 C13.0179995,6.51830265 15.4903445,8.77745284 15.4903445,11.6183027 C15.4903445,12.2258159 14.9978577,12.7183027 14.3903445,12.7183027 C13.7828313,12.7183027 13.2903445,12.2258159 13.2903445,11.6183027 C13.2903445,10.0389749 11.8450411,8.71830265 10.0139634,8.71830265 L5.6238685,8.71830265 C3.79850679,8.71830265 2.34748737,10.0428065 2.34748737,11.6183027 C2.34748737,13.1940136 3.79526193,14.5183027 5.6238685,14.5183027 L8.59974983,14.5183027 C9.20726305,14.5183027 9.69974983,15.0107894 9.69974983,15.6183027 C9.69974983,16.2258159 9.20726305,16.7183027 8.59974983,16.7183027 L5.6238685,16.7183027 C2.62185249,16.7183027 0.147487373,14.4549844 0.147487373,11.6183027 C0.147487373,8.78072004 2.62600914,6.51830265 5.6238685,6.51830265 L10.0139634,6.51830265 Z" id="Combined-Shape" fill="#000" transform="translate(12.500000, 11.865790) rotate(-45.000000) translate(-12.500000, -11.865790) "></path>
    </g>
</svg>
