<?xml version="1.0" encoding="UTF-8"?> <svg xmlns="http://www.w3.org/2000/svg" xmlns:xlink="http://www.w3.org/1999/xlink" width="52px" height="48px" viewBox="0 0 52 48" version="1.1"><title>Feature Icon</title><defs><filter color-interpolation-filters="auto" id="filter-1"><feColorMatrix in="SourceGraphic" type="matrix" values="0 0 0 0 1.000000 0 0 0 0 0.666667 0 0 0 0 0.000000 0 0 0 1.000000 0"></feColorMatrix></filter><filter color-interpolation-filters="auto" id="filter-2"><feColorMatrix in="SourceGraphic" type="matrix" values="0 0 0 0 0.239216 0 0 0 0 0.278431 0 0 0 0 0.301961 0 0 0 1.000000 0"></feColorMatrix></filter></defs><g id="Mara" stroke="none" stroke-width="1" fill="none" fill-rule="evenodd"><g id="MN-Knowledge-base" transform="translate(-543.000000, -844.000000)"><g id="Feature-Icon" transform="translate(471.000000, 824.000000)" filter="url(#filter-1)"><g id="Icons/GenericPlaceholder" transform="translate(70.000000, 16.000000)" filter="url(#filter-2)"><g><path d="M10.5,28 C12.2571254,28 13.8846405,28.5549278 15.2168507,29.4990889 C12.9946036,32.2887367 11.6666667,35.8226236 11.6666667,39.6666667 L11.6666667,39.6666667 L11.6663333,46.6666667 L5.54166667,46.6666667 C3.76975309,46.6666667 2.33333333,45.2302469 2.33333333,43.4583333 L2.33333333,36.1666667 C2.33333333,31.6563412 5.98967454,28 10.5,28 Z M45.5,28 C50.0103255,28 53.6666667,31.6563412 53.6666667,36.1666667 L53.6666667,43.4583333 C53.6666667,45.2302469 52.2302469,46.6666667 50.4583333,46.6666667 L44.3333333,46.6666667 L44.3333333,39.6666667 C44.3333333,35.8226236 43.0053964,32.2887367 40.7832376,29.4987214 C42.1153595,28.5549278 43.7428746,28 45.5,28 Z M10.5,25.6666667 C13.721661,25.6666667 16.3333333,23.0549944 16.3333333,19.8333333 C16.3333333,16.6116723 13.721661,14 10.5,14 C7.27833896,14 4.66666667,16.6116723 4.66666667,19.8333333 C4.66666667,23.0549944 7.27833896,25.6666667 10.5,25.6666667 Z M45.5,25.6666667 C48.721661,25.6666667 51.3333333,23.0549944 51.3333333,19.8333333 C51.3333333,16.6116723 48.721661,14 45.5,14 C42.278339,14 39.6666667,16.6116723 39.6666667,19.8333333 C39.6666667,23.0549944 42.278339,25.6666667 45.5,25.6666667 Z M28,25.6666667 C35.7319865,25.6666667 42,31.9346802 42,39.6666667 L42,48.125 C42,49.8969136 40.5635802,51.3333333 38.7916667,51.3333333 L17.2083333,51.3333333 C15.4364198,51.3333333 14,49.8969136 14,48.125 L14,39.6666667 C14,31.9346802 20.2680135,25.6666667 28,25.6666667 Z M28,30.3333333 C22.8453423,30.3333333 18.6666667,34.512009 18.6666667,39.6666667 L18.6666667,39.6666667 L18.6666667,45.5 C18.6666667,46.1443322 19.1890011,46.6666667 19.8333333,46.6666667 L19.8333333,46.6666667 L36.1666667,46.6666667 C36.8109989,46.6666667 37.3333333,46.1443322 37.3333333,45.5 L37.3333333,45.5 L37.3333333,39.6666667 C37.3333333,34.512009 33.1546577,30.3333333 28,30.3333333 Z M28,4.66666667 C33.1546577,4.66666667 37.3333333,8.84534234 37.3333333,14 C37.3333333,19.1546577 33.1546577,23.3333333 28,23.3333333 C22.8453423,23.3333333 18.6666667,19.1546577 18.6666667,14 C18.6666667,8.84534234 22.8453423,4.66666667 28,4.66666667 Z M28,9.33333333 C25.4226712,9.33333333 23.3333333,11.4226712 23.3333333,14 C23.3333333,16.5773288 25.4226712,18.6666667 28,18.6666667 C30.5773288,18.6666667 32.6666667,16.5773288 32.6666667,14 C32.6666667,11.4226712 30.5773288,9.33333333 28,9.33333333 Z" id="Combined-Shape" fill="#FFAA00"></path></g></g></g></g></g></svg> 