<svg xmlns="http://www.w3.org/2000/svg" xmlns:xlink="http://www.w3.org/1999/xlink" width="100" height="45" viewBox="0 0 100 45">
  <defs>
    <rect id="blocktypes-a" width="35.168" height="38.191" x="3.517" y="1.736" rx="7.026"/>
    <filter id="blocktypes-c" color-interpolation-filters="auto">
      <feColorMatrix in="SourceGraphic" values="0 0 0 0 1.000000 0 0 0 0 0.830000 0 0 0 0 0.150000 0 0 0 1.000000 0"/>
    </filter>
  </defs>
  <g fill="none" fill-rule="evenodd">
    <path stroke="#FFD426" stroke-linecap="round" stroke-linejoin="round" stroke-width="3.513" d="M35.0578103,6.66101682 C35.0578103,6.66101682 42.2814683,4.26056129 52.5146682,23.4875131 C62.747868,42.7144649 74.3187569,37.2728235 74.3187569,37.2728235" opacity=".5"/>
    <g transform="rotate(-145 45.368 9.891)">
      <path fill="#FDACC7" d="M0,31.5899856 L14.0672727,31.5899856 L14.0672727,33.2361897 C14.0672727,37.1207598 10.9182065,40.2698261 7.03363636,40.2698261 C3.14906626,40.2698261 -4.12455786e-16,37.1207598 0,33.2361897 L0,31.5899856 L0,31.5899856 Z"/>
      <rect width="14.067" height="3.472" y="29.854" fill="#8A9499"/>
      <path fill="#3D474D" d="M7.05985777,-3.40115827e-13 C7.68069186,-3.40229872e-13 8.25875001,0.316294969 8.59349153,0.839155445 L10.0116638,3.05431609 L10.0116638,3.05431609 L4.03516375,3.05431609 L5.51224975,0.830043124 C5.85652821,0.311610696 6.43752358,-3.40001506e-13 7.05985777,-3.40115827e-13 Z"/>
      <polygon fill="#FFF2B3" points="4.035 3.054 10.012 3.054 14.067 9.667 0 9.667"/>
      <polygon fill="#FFD426" points="0 9.667 14.067 9.667 14.067 30.292 0 30.292"/>
    </g>
    <g transform="translate(0 .868)">
      <mask id="blocktypes-b" fill="#fff">
        <use xlink:href="#blocktypes-a"/>
      </mask>
      <use fill="#FFD426" xlink:href="#blocktypes-a"/>
      <path fill="#FFF" d="M29.9058715,1.75656382 L38.6886905,1.75656382 L38.6886905,10.5393829 L34.4094994,10.5393829 C32.8434899,10.5393829 32.275617,10.3763288 31.7031073,10.0701473 C31.1305976,9.76396573 30.6812886,9.31465678 30.3751071,8.74214709 C30.0689256,8.1696374 29.9058715,7.60176449 29.9058715,6.03575493 L29.9058715,1.75656382 L29.9058715,1.75656382 Z" mask="url(#blocktypes-b)" opacity=".5"/>
      <rect width="17.584" height="3.472" x="10.55" y="10.416" fill="#FFF" mask="url(#blocktypes-b)" rx="1.736"/>
      <rect width="12.309" height="3.472" x="10.55" y="17.36" fill="#FFF" mask="url(#blocktypes-b)" rx="1.736"/>
    </g>
    <g transform="translate(42.202 14.756)">
      <ellipse cx="12.309" cy="12.152" fill="#FFD426" opacity=".4" rx="9.232" ry="9.114"/>
      <ellipse cx="12.309" cy="12.152" fill="#FFD426" opacity=".6" rx="6.154" ry="6.076"/>
      <ellipse cx="12.309" cy="12.152" fill="#FFF" rx="3.077" ry="3.038"/>
      <rect width="3.077" height="7.595" x="10.77" fill="#FFD426" rx="1.539"/>
      <rect width="3.077" height="7.595" x="10.77" y="16.709" fill="#FFD426" rx="1.539"/>
      <path fill="#FFD426" d="M24.6177273 12.1517767C24.6177273 12.9906819 23.9376603 13.6707488 23.0987552 13.6707488L18.4436596 13.6707488C17.6047545 13.6707488 16.9246875 12.9906819 16.9246875 12.1517767 16.9246875 11.3128716 17.6047545 10.6328046 18.4436596 10.6328046L23.0987552 10.6328046C23.9376603 10.6328046 24.6177273 11.3128716 24.6177273 12.1517767zM7.69303977 12.1517767C7.69303977 12.9906819 7.0129728 13.6707488 6.17406768 13.6707488L1.51897209 13.6707488C.68006697 13.6707488 1.02736247e-16 12.9906819 0 12.1517767-1.02736247e-16 11.3128716.68006697 10.6328046 1.51897209 10.6328046L6.17406768 10.6328046C7.0129728 10.6328046 7.69303977 11.3128716 7.69303977 12.1517767z"/>
    </g>
    <g filter="url(#blocktypes-c)" transform="translate(39.564)">
      <path fill="#D8D8D8" stroke="#979797" stroke-width=".878" d="M3.86702688 38.1654613L4.07067984 38.274638C4.13130513 38.4968587 4.24801833 38.6953128 4.40496256 38.8539703 4.58718913 39.0381861 4.82365249 39.1687508 5.08953176 39.2205726L5.08953176 39.2205726 5.23266369 39.24847 4.97500215 39.4539951C4.75574182 39.5174324 4.56057629 39.6356201 4.40496256 39.7929326 4.22273599 39.9771484 4.09474619 40.2150153 4.04581403 40.4814415L4.04581403 40.4814415 4.02154199 40.6135981 3.84216107 40.3722649C3.78153578 40.1500442 3.66482258 39.9515901 3.50787835 39.7929326 3.32565177 39.6087168 3.08918842 39.4781521 2.82330915 39.4263303L2.82330915 39.4263303 2.68017722 39.3984329 2.93783876 39.1929078C3.15709909 39.1294705 3.35226462 39.0112827 3.50787835 38.8539703 3.69010492 38.6697545 3.81809472 38.4318875 3.86702688 38.1654613L3.86702688 38.1654613zM21.3984026 3.20478495L21.8535581 4.12605132C21.9103186 4.36580958 22.0318005 4.57980677 22.1988743 4.74870443 22.3811009 4.93292024 22.6175643 5.06348494 22.8834435 5.11530673L22.8834435 5.11530673 24.0783359 5.34819986 22.8523258 5.75981612C22.5991163 5.81549943 22.3739605 5.94296797 22.1988743 6.11996545 22.0166478 6.30418126 21.888658 6.54204818 21.8397258 6.80847439L21.8397258 6.80847439 21.623263 7.98707297 21.2353101 6.7779025C21.1824527 6.52385474 21.0573758 6.29710567 20.8821484 6.11996545 20.6999218 5.93574964 20.4634585 5.80518494 20.1975792 5.75336315L20.1975792 5.75336315 19.0026868 5.52047002 20.2286969 5.10885376C20.4819064 5.05317044 20.7070622 4.92570191 20.8821484 4.74870443 21.064375 4.56448862 21.1923648 4.3266217 21.2412969 4.06019549L21.2412969 4.06019549 21.3984026 3.20478495z"/>
      <path fill="#D8D8D8" stroke="#979797" stroke-width=".878"/>
      <path fill="#D8D8D8" stroke="#979797" stroke-width=".878"/>
    </g>
  </g>
</svg>
