<svg xmlns="http://www.w3.org/2000/svg" width="101" height="60" viewBox="0 0 101 60">
  <g fill="none" fill-rule="evenodd" transform="translate(.02)">
    <g transform="translate(0 5)">
      <path fill="#8A9499" d="M8,0 L26.496,0 C30.914278,-8.11624501e-16 34.496,3.581722 34.496,8 L34.496,20.8 C34.496,25.218278 30.914278,28.8 26.496,28.8 L18.816,28.8 L18.816,28.8 L12.6083765,33.8674478 C12.1805429,34.2166997 11.5505907,34.1529966 11.2013388,33.7251631 C11.055601,33.5466343 10.976,33.323247 10.976,33.0927866 L10.976,28.8 L10.976,28.8 L8,28.8 C3.581722,28.8 5.41083001e-16,25.218278 0,20.8 L0,8 C-5.41083001e-16,3.581722 3.581722,8.11624501e-16 8,0 Z" opacity=".3" transform="matrix(-1 0 0 1 34.496 0)"/>
      <rect width="15.68" height="3" x="7.84" y="10" fill="#FFF" rx="1.5"/>
      <rect width="9.8" height="3" x="7.84" y="16" fill="#FFF" rx="1.5"/>
    </g>
    <path fill="#8A9499" d="M37.7104,34.56 C44.4650634,34.56 49.9408,40.0357366 49.9408,46.7904 L49.9408,53.28 L49.9408,53.28 L49.9408,54.58 C49.9408,56.1595344 48.6603344,57.44 47.0808,57.44 L28.34,57.44 C26.7604656,57.44 25.48,56.1595344 25.48,54.58 L25.48,53.28 L25.48,53.28 L25.48,46.7904 C25.48,40.0357366 30.9557366,34.56 37.7104,34.56 Z M37.7104,32.48 C42.2135089,32.48 45.864,28.7550091 45.864,24.16 C45.864,19.5649909 42.2135089,15.84 37.7104,15.84 C33.2072911,15.84 29.5568,19.5649909 29.5568,24.16 C29.5568,28.7550091 33.2072911,32.48 37.7104,32.48 Z"/>
    <path fill="#4070FF" d="M60.368,32.14 C68.1618424,32.14 74.48,38.4581576 74.48,46.252 L74.48,54.28 L74.48,54.28 L74.48,55.845 C74.48,57.6979153 72.9779153,59.2 71.125,59.2 L49.611,59.2 C47.7580847,59.2 46.256,57.6979153 46.256,55.845 L46.256,54.28 L46.256,54.28 L46.256,46.252 C46.256,38.4581576 52.5741576,32.14 60.368,32.14 Z M60.368,29.68 C65.5638949,29.68 69.776,25.2744819 69.776,19.84 C69.776,14.4055181 65.5638949,10 60.368,10 C55.1721051,10 50.96,14.4055181 50.96,19.84 C50.96,25.2744819 55.1721051,29.68 60.368,29.68 Z"/>
    <g transform="translate(65.66)">
      <path fill="#FFD426" d="M8,0 L26.496,0 C30.914278,-8.11624501e-16 34.496,3.581722 34.496,8 L34.496,20.8 C34.496,25.218278 30.914278,28.8 26.496,28.8 L18.816,28.8 L18.816,28.8 L12.6083765,33.8674478 C12.1805429,34.2166997 11.5505907,34.1529966 11.2013388,33.7251631 C11.055601,33.5466343 10.976,33.323247 10.976,33.0927866 L10.976,28.8 L10.976,28.8 L8,28.8 C3.581722,28.8 5.41083001e-16,25.218278 0,20.8 L0,8 C-5.41083001e-16,3.581722 3.581722,8.11624501e-16 8,0 Z"/>
      <rect width="15.68" height="3" x="7.84" y="10" fill="#FFF" rx="1.5"/>
      <rect width="9.8" height="3" x="7.84" y="16" fill="#FFF" rx="1.5"/>
    </g>
  </g>
</svg>
