<svg xmlns="http://www.w3.org/2000/svg" xmlns:xlink="http://www.w3.org/1999/xlink" width="99" height="66" viewBox="0 0 99 66">
  <defs>
    <filter id="integration-a" color-interpolation-filters="auto">
      <feColorMatrix in="SourceGraphic" values="0 0 0 0 0.250000 0 0 0 0 0.437500 0 0 0 0 1.000000 0 0 0 1.000000 0"/>
    </filter>
    <path id="integration-b" d="M0,16 C1.082166e-15,24.836556 7.163444,32 16,32 C24.836556,32 32,24.836556 32,16 C32,7.163444 24.836556,-1.623249e-15 16,0 C7.163444,1.623249e-15 -1.082166e-15,7.163444 0,16 Z"/>
    <filter id="integration-c" color-interpolation-filters="auto">
      <feColorMatrix in="SourceGraphic" values="0 0 0 0 1.000000 0 0 0 0 1.000000 0 0 0 0 1.000000 0 0 0 1.000000 0"/>
    </filter>
    <filter id="integration-d" color-interpolation-filters="auto">
      <feColorMatrix in="SourceGraphic" values="0 0 0 0 0.000000 0 0 0 0 0.666667 0 0 0 0 1.000000 0 0 0 1.000000 0"/>
    </filter>
    <path id="integration-e" d="M0,11 C7.43989126e-16,17.0751322 4.92486775,22 11,22 C17.0751322,22 22,17.0751322 22,11 C22,4.92486775 17.0751322,-1.11598369e-15 11,0 C4.92486775,1.11598369e-15 -7.43989126e-16,4.92486775 0,11 Z"/>
    <filter id="integration-f" color-interpolation-filters="auto">
      <feColorMatrix in="SourceGraphic" values="0 0 0 0 1.000000 0 0 0 0 1.000000 0 0 0 0 1.000000 0 0 0 1.000000 0"/>
    </filter>
  </defs>
  <g fill="none" fill-rule="evenodd" transform="translate(.36)">
    <path fill="#8A9499" d="M28.5377438,10 C29.7176892,10 30.7462171,10.8030504 31.0323959,11.9477655 L31.5335347,13.9523205 C31.760229,14.8590977 32.4611097,15.5714569 33.364085,15.8128502 L34.4515229,16.103556 C35.3534719,16.344675 36.315252,16.0779786 36.9642252,15.4067974 L38.3999853,13.9219052 C39.220181,13.0736422 40.5124376,12.8924441 41.5343002,13.4824168 L42.4656998,14.0201606 C43.4875624,14.6101333 43.9767686,15.8198593 43.6522491,16.9543011 L43.0827487,18.9451373 C42.8258292,19.8432659 43.0761916,20.8100837 43.7367378,21.4706299 L44.5293701,22.2632622 C45.1899163,22.9238084 46.1567341,23.1741708 47.0548627,22.9172513 L49.0456989,22.3477509 C50.1801407,22.0232314 51.3898667,22.5124376 51.9798394,23.5343002 L52.5175832,24.4656998 C53.1075559,25.4875624 52.9263578,26.779819 52.0780948,27.6000147 L50.5932026,29.0357748 C49.9220214,29.684748 49.655325,30.6465281 49.896444,31.5484771 L50.1871498,32.635915 C50.4285431,33.5388903 51.1409023,34.239771 52.0476795,34.4664653 L54.0522345,34.9676041 C55.1969496,35.2537829 56,36.2823108 56,37.4622562 L56,38.5377438 C56,39.7176892 55.1969496,40.7462171 54.0522345,41.0323959 L52.0476795,41.5335347 C51.1409023,41.760229 50.4285431,42.4611097 50.1871498,43.364085 L49.896444,44.4515229 C49.655325,45.3534719 49.9220214,46.315252 50.5932026,46.9642252 L52.0780948,48.3999853 C52.9263578,49.220181 53.1075559,50.5124376 52.5175832,51.5343002 L51.9798394,52.4656998 C51.3898667,53.4875624 50.1801407,53.9767686 49.0456989,53.6522491 L47.0548627,53.0827487 C46.1567341,52.8258292 45.1899163,53.0761916 44.5293701,53.7367378 L43.7367378,54.5293701 C43.0761916,55.1899163 42.8258292,56.1567341 43.0827487,57.0548627 L43.6522491,59.0456989 C43.9767686,60.1801407 43.4875624,61.3898667 42.4656998,61.9798394 L41.5343002,62.5175832 C40.5124376,63.1075559 39.220181,62.9263578 38.3999853,62.0780948 L36.9642252,60.5932026 C36.315252,59.9220214 35.3534719,59.655325 34.4515229,59.896444 L33.364085,60.1871498 C32.4611097,60.4285431 31.760229,61.1409023 31.5335347,62.0476795 L31.0323959,64.0522345 C30.7462171,65.1969496 29.7176892,66 28.5377438,66 L27.4622562,66 C26.2823108,66 25.2537829,65.1969496 24.9676041,64.0522345 L24.4664653,62.0476795 C24.239771,61.1409023 23.5388903,60.4285431 22.635915,60.1871498 L21.5484771,59.896444 C20.6465281,59.655325 19.684748,59.9220214 19.0357748,60.5932026 L17.6000147,62.0780948 C16.779819,62.9263578 15.4875624,63.1075559 14.4656998,62.5175832 L13.5343002,61.9798394 C12.5124376,61.3898667 12.0232314,60.1801407 12.3477509,59.0456989 L12.9172513,57.0548627 C13.1741708,56.1567341 12.9238084,55.1899163 12.2632622,54.5293701 L11.4706299,53.7367378 C10.8100837,53.0761916 9.84326586,52.8258292 8.9451373,53.0827487 L6.95430109,53.6522491 C5.8198593,53.9767686 4.61013327,53.4875624 4.02016059,52.4656998 L3.4824168,51.5343002 C2.89244412,50.5124376 3.07364216,49.220181 3.92190516,48.3999853 L5.40679738,46.9642252 C6.07797863,46.315252 6.344675,45.3534719 6.10355605,44.4515229 L5.8128502,43.364085 C5.57145689,42.4611097 4.85909768,41.760229 3.95232046,41.5335347 L1.94776554,41.0323959 C0.803050389,40.7462171 1.27241544e-15,39.7176892 0,38.5377438 L0,37.4622562 C-2.60468307e-15,36.2823108 0.803050389,35.2537829 1.94776554,34.9676041 L3.95232046,34.4664653 C4.85909768,34.239771 5.57145689,33.5388903 5.8128502,32.635915 L6.10355605,31.5484771 C6.344675,30.6465281 6.07797863,29.684748 5.40679738,29.0357748 L3.92190516,27.6000147 C3.07364216,26.779819 2.89244412,25.4875624 3.4824168,24.4656998 L4.02016059,23.5343002 C4.61013327,22.5124376 5.8198593,22.0232314 6.95430109,22.3477509 L8.9451373,22.9172513 C9.84326586,23.1741708 10.8100837,22.9238084 11.4706299,22.2632622 L12.2632622,21.4706299 C12.9238084,20.8100837 13.1741708,19.8432659 12.9172513,18.9451373 L12.3477509,16.9543011 C12.0232314,15.8198593 12.5124376,14.6101333 13.5343002,14.0201606 L14.4656998,13.4824168 C15.4875624,12.8924441 16.779819,13.0736422 17.6000147,13.9219052 L19.0357748,15.4067974 C19.684748,16.0779786 20.6465281,16.344675 21.5484771,16.103556 L22.635915,15.8128502 C23.5388903,15.5714569 24.239771,14.8590977 24.4664653,13.9523205 L24.9676041,11.9477655 C25.2537829,10.8030504 26.2823108,10 27.4622562,10 L28.5377438,10 Z M28,19.3333333 C17.6906847,19.3333333 9.33333333,27.6906847 9.33333333,38 C9.33333333,48.3093153 17.6906847,56.6666667 28,56.6666667 C38.3093153,56.6666667 46.6666667,48.3093153 46.6666667,38 C46.6666667,27.6906847 38.3093153,19.3333333 28,19.3333333 Z" opacity=".3"/>
    <path fill="#8A9499" d="M73.9244338,3.98642238 C74.9929917,3.98642238 75.9244261,4.7136644 76.1835895,5.75031784 L76.3510586,6.42019462 C76.5730465,7.30814606 77.2593761,8.00571584 78.1436046,8.24209753 C79.0279944,8.47852235 79.9710504,8.21701806 80.6073893,7.55890347 L81.0859998,7.06391474 C81.8287686,6.29572821 82.9990355,6.13163535 83.9244338,6.66591431 C84.8498321,7.20019326 85.2928569,8.29572053 84.9989723,9.32307042 L84.8079308,9.99090514 C84.5564626,10.8699774 84.8015128,11.8162816 85.4480437,12.4628124 C86.0945746,13.1093433 87.0408787,13.3543936 87.919951,13.1029253 L88.5877857,12.9118839 C89.6151356,12.6179992 90.7106629,13.0610241 91.2449418,13.9864224 C91.7792208,14.9118207 91.6151279,16.0820875 90.8469414,16.8248563 L90.3519527,17.3034669 C89.6938381,17.9398057 89.4323338,18.8828617 89.6687586,19.7672515 C89.9051403,20.65148 90.6027101,21.3378096 91.4906615,21.5597975 L92.1605383,21.7272667 C93.1971918,21.9864301 93.9244338,22.9178645 93.9244338,23.9864224 C93.9244338,25.0549803 93.1971918,25.9864147 92.1605383,26.2455781 L91.4906615,26.4130473 C90.6027101,26.6350351 89.9051403,27.3213647 89.6687586,28.2055932 C89.4323338,29.089983 89.6938381,30.033039 90.3519527,30.6693779 L90.8469414,31.1479884 C91.6151279,31.8907572 91.7792208,33.0610241 91.2449418,33.9864224 C90.7106629,34.9118207 89.6151356,35.3548455 88.5877857,35.0609609 L87.919951,34.8699194 C87.0408787,34.6184512 86.0945746,34.8635014 85.4480437,35.5100323 C84.8015128,36.1565632 84.5564626,37.1028673 84.8079308,37.9819396 L84.9989723,38.6497743 C85.2928569,39.6771242 84.8498321,40.7726515 83.9244338,41.3069305 C82.9990355,41.8412094 81.8287686,41.6771166 81.0859998,40.90893 L80.6073893,40.4139413 C79.9710504,39.7558267 79.0279944,39.4943224 78.1436046,39.7307472 C77.2593761,39.9671289 76.5730465,40.6646987 76.3510586,41.5526501 L76.1835895,42.2225269 C75.9244261,43.2591804 74.9929917,43.9864224 73.9244338,43.9864224 C72.8558759,43.9864224 71.9244414,43.2591804 71.6652781,42.2225269 L71.4978089,41.5526501 C71.275821,40.6646987 70.5894914,39.9671289 69.7052629,39.7307472 C68.8208731,39.4943224 67.8778171,39.7558267 67.2414782,40.4139413 L66.7628677,40.90893 C66.0200989,41.6771166 64.8498321,41.8412094 63.9244338,41.3069305 C62.9990355,40.7726515 62.5560106,39.6771242 62.8498953,38.6497743 L63.0409367,37.9819396 C63.2924049,37.1028673 63.0473547,36.1565632 62.4008238,35.5100323 C61.754293,34.8635014 60.8079888,34.6184512 59.9289165,34.8699194 L59.2610818,35.0609609 C58.2337319,35.3548455 57.1382046,34.9118207 56.6039257,33.9864224 C56.0696467,33.0610241 56.2337396,31.8907572 57.0019261,31.1479884 L57.4969149,30.6693779 C58.1550294,30.033039 58.4165337,29.089983 58.1801089,28.2055932 C57.9437272,27.3213647 57.2461574,26.6350351 56.358206,26.4130473 L55.6883292,26.2455781 C54.6516758,25.9864147 53.9244338,25.0549803 53.9244338,23.9864224 C53.9244338,22.9178645 54.6516758,21.9864301 55.6883292,21.7272667 L56.358206,21.5597975 C57.2461574,21.3378096 57.9437272,20.65148 58.1801089,19.7672515 C58.4165337,18.8828617 58.1550294,17.9398057 57.4969149,17.3034669 L57.0019261,16.8248563 C56.2337396,16.0820875 56.0696467,14.9118207 56.6039257,13.9864224 C57.1382046,13.0610241 58.2337319,12.6179992 59.2610818,12.9118839 L59.9289165,13.1029253 C60.8079888,13.3543936 61.754293,13.1093433 62.4008238,12.4628124 C63.0473547,11.8162816 63.2924049,10.8699774 63.0409367,9.99090514 L62.8498953,9.32307042 C62.5560106,8.29572053 62.9990355,7.20019326 63.9244338,6.66591431 C64.8498321,6.13163535 66.0200989,6.29572821 66.7628677,7.06391474 L67.2414782,7.55890347 C67.8778171,8.21701806 68.8208731,8.47852235 69.7052629,8.24209753 C70.5894914,8.00571584 71.275821,7.30814606 71.4978089,6.42019462 L71.6652781,5.75031784 C71.9244414,4.7136644 72.8558759,3.98642238 73.9244338,3.98642238 Z M73.9244338,10.653089 C66.5606371,10.653089 60.5911004,16.6226257 60.5911004,23.9864224 C60.5911004,31.350219 66.5606371,37.3197557 73.9244338,37.3197557 C81.2882304,37.3197557 87.2577671,31.350219 87.2577671,23.9864224 C87.2577671,16.6226257 81.2882304,10.653089 73.9244338,10.653089 Z" opacity=".3" transform="rotate(13 73.924 23.986)"/>
    <g transform="translate(12.32 22)">
      <g filter="url(#integration-a)">
        <use fill="#0AF" xlink:href="#integration-b"/>
      </g>
      <g filter="url(#integration-c)">
        <path fill="#3D474D" d="M13.4058875,3.2 C14.042407,3.2 14.6528564,3.45285642 15.1029437,3.90294373 L23.9029437,12.7029437 C24.840202,13.640202 24.840202,15.159798 23.9029437,16.0970563 L16.0970563,23.9029437 C15.159798,24.840202 13.640202,24.840202 12.7029437,23.9029437 L3.90294373,15.1029437 C3.45285642,14.6528564 3.2,14.042407 3.2,13.4058875 L3.2,5.6 C3.2,4.2745166 4.2745166,3.2 5.6,3.2 L13.4058875,3.2 Z M14.9340208,8.49043019 C14.6219299,8.25658434 14.1773744,8.28031914 13.8920491,8.56302311 L13.8920491,8.56302311 L8.57101009,13.8343271 C8.57012058,13.8352083 8.56923314,13.8360916 8.56834777,13.8369769 C8.25592834,14.1493964 8.25592834,14.6559283 8.56834777,14.9683478 L8.56834777,14.9683478 L13.8343146,20.2343146 C14.146734,20.546734 14.653266,20.546734 14.9656854,20.2343146 L14.9656854,20.2343146 L20.2369895,14.9630105 C20.5483624,14.6516376 20.5495579,14.1471725 20.2396644,13.8343273 L20.2396644,13.8343273 L15.0233822,8.56836033 L15.0233822,8.56836033 Z M7.2,5.6 C6.3163444,5.6 5.6,6.3163444 5.6,7.2 C5.6,8.0836556 6.3163444,8.8 7.2,8.8 C8.0836556,8.8 8.8,8.0836556 8.8,7.2 C8.8,6.3163444 8.0836556,5.6 7.2,5.6 Z" transform="translate(3.2 3.2)"/>
      </g>
    </g>
    <g transform="translate(63.28 13)">
      <g filter="url(#integration-d)">
        <use fill="#0AF" xlink:href="#integration-e"/>
      </g>
      <g filter="url(#integration-f)">
        <path fill="#3D474D" d="M8.09579716,10.4131643 C8.50372771,10.7531064 9.09627229,10.7531064 9.50420284,10.4131643 L9.50420284,10.4131643 L15.4,5.5 L15.4,12.1847947 C15.4,12.9202977 15.3234189,13.1870088 15.1796155,13.4558977 C15.0358122,13.7247866 14.8247866,13.9358122 14.5558977,14.0796155 C14.2870088,14.2234189 14.0202977,14.3 13.2847947,14.3 L4.31520529,14.3 C3.57970233,14.3 3.31299118,14.2234189 3.04410229,14.0796155 C2.77521341,13.9358122 2.56418783,13.7247866 2.42038448,13.4558977 C2.27658113,13.1870088 2.2,12.9202977 2.2,12.1847947 L2.2,5.5 Z M13.2847947,3.3 C14.0202977,3.3 14.2870088,3.37658113 14.5558977,3.52038448 C14.8247866,3.66418783 15.0358122,3.87521341 15.1796155,4.14410229 C15.2320467,4.24214012 15.2755417,4.33988844 15.3096468,4.46017461 L9.41017022,8.39321986 C9.04068086,8.63954609 8.55931914,8.63954609 8.18982978,8.39321986 L8.18982978,8.39321986 L2.29062478,4.4592179 C2.32468911,4.33936988 2.36809235,4.24188007 2.42038448,4.14410229 C2.56418783,3.87521341 2.77521341,3.66418783 3.04410229,3.52038448 C3.31299118,3.37658113 3.57970233,3.3 4.31520529,3.3 L13.2847947,3.3 Z" transform="translate(2.2 2.2)"/>
      </g>
    </g>
  </g>
</svg>
