<?xml version="1.0" encoding="UTF-8"?>
<svg width="48px" height="37px" viewBox="0 0 48 37" version="1.1" xmlns="http://www.w3.org/2000/svg" xmlns:xlink="http://www.w3.org/1999/xlink">
    <title>Service/YouTube/Colored</title>
    <g id="Mara" stroke="none" stroke-width="1" fill="none" fill-rule="evenodd">
        <g id="MN-Homepage" transform="translate(-596.000000, -7547.000000)">
            <g id="Service/YouTube/Colored" transform="translate(596.000000, 7541.413462)">
                <path d="M46.9968144,11.6210445 C46.444845,9.40869483 44.8185702,7.66582392 42.7533276,7.07442468 C39.0100506,6 23.9998024,6 23.9998024,6 C23.9998024,6 8.98994938,6 5.24667243,7.07442468 C3.18142981,7.66582392 1.55515496,9.40869483 1.00318558,11.6210445 C0,15.6321453 0,23.9997883 0,23.9997883 C0,23.9997883 0,32.3678547 1.00318558,36.3785322 C1.55515496,38.5908818 3.18142981,40.3341761 5.24667243,40.925152 C8.98994938,42 23.9998024,42 23.9998024,42 C23.9998024,42 39.0100506,42 42.7533276,40.925152 C44.8185702,40.3341761 46.444845,38.5908818 46.9968144,36.3785322 C48,32.3678547 48,23.9997883 48,23.9997883 C48,23.9997883 48,15.6321453 46.9968144,11.6210445" id="Fill-1" fill="#FF4019"></path>
                <polygon id="Fill-4" fill="#FFFFFE" points="34 24 18 15 18 33"></polygon>
            </g>
        </g>
    </g>
</svg>