<svg xmlns="http://www.w3.org/2000/svg" xmlns:xlink="http://www.w3.org/1999/xlink" width="610" height="619" viewBox="0 0 610 619">
  <defs>
    <linearGradient id="privacy-eu-c" x1="19.681%" x2="83.999%" y1="28.796%" y2="77.127%">
      <stop offset="0%" stop-color="#FFF"/>
      <stop offset="100%" stop-color="#C6CACC"/>
    </linearGradient>
    <path id="privacy-eu-b" d="M237.379694,54 C155.994689,77.7972443 97.1346489,110.928156 61.0488764,154.013855 C58.4361508,157.133404 57,161.10655 57,165.215233 C57,298.660016 117.490971,388.425399 236.444109,431.033693 C240.041058,432.322102 243.958936,432.322102 247.555897,431.033693 C366.509023,388.425399 427,298.660016 427,165.215233 C427,161.106556 425.563862,157.133404 422.951136,154.013861 C386.865351,110.928169 328.005324,77.7972443 246.620318,54 L237.379694,54 Z"/>
    <filter id="privacy-eu-a" width="205.4%" height="203.2%" x="-52.7%" y="-43.7%" filterUnits="objectBoundingBox">
      <feMorphology in="SourceAlpha" radius="5" result="shadowSpreadOuter1"/>
      <feOffset dy="30" in="shadowSpreadOuter1" result="shadowOffsetOuter1"/>
      <feGaussianBlur in="shadowOffsetOuter1" result="shadowBlurOuter1" stdDeviation="65"/>
      <feComposite in="shadowBlurOuter1" in2="SourceAlpha" operator="out" result="shadowBlurOuter1"/>
      <feColorMatrix in="shadowBlurOuter1" values="0 0 0 0 0.54   0 0 0 0 0.58   0 0 0 0 0.6  0 0 0 0.4 0"/>
    </filter>
    <path id="privacy-eu-d" d="M174.749916,9.09494702e-13 C252.124088,22.8478279 308.483832,54.1673925 342.984884,95.3609458 C343.650648,96.1558547 344,97.1721912 344,98.215233 C344,161.991422 329.786665,215.435501 301.084125,257.953838 C272.536168,300.243186 229.719146,331.540323 173.172119,351.795127 C172.41328,352.066939 171.586738,352.066944 170.827889,351.795128 C114.280855,331.540323 71.4638327,300.243188 42.9158751,257.953841 C14.2133344,215.435504 0,161.991423 0,98.215233 C0,97.1721811 0.349369694,96.1558439 1.01512924,95.3609386 C35.5161698,54.167378 91.8759263,22.8478272 169.250097,9.09494702e-13 L169.250097,9.09494702e-13 L174.749916,9.09494702e-13 Z"/>
    <linearGradient id="privacy-eu-f" x1="0%" x2="86.358%" y1="50%" y2="50%">
      <stop offset="0%" stop-color="#BEC6C9" stop-opacity=".822"/>
      <stop offset="100%" stop-color="#8A9499"/>
    </linearGradient>
  </defs>
  <g fill="none" fill-rule="evenodd" transform="translate(63 36.7)">
    <circle cx="243" cy="243" r="243" fill="#8A9499" opacity=".1"/>
    <use fill="#000" filter="url(#privacy-eu-a)" xlink:href="#privacy-eu-b"/>
    <path fill="url(#privacy-eu-c)" stroke="#000" stroke-linejoin="square" stroke-opacity=".05" stroke-width="2" d="M246.477063,55 C327.552821,78.7246877 386.220644,111.715832 422.184501,154.655945 C424.647461,157.596669 426,161.342374 426,165.215233 C426,231.729148 410.93898,287.362481 381.030021,331.66794 C351.149278,375.931601 306.453714,408.874633 247.218683,430.092265 C243.840039,431.302474 240.159957,431.302475 236.781323,430.092265 C177.546287,408.874634 132.850722,375.931602 102.96998,331.667943 C73.0610195,287.362483 58,231.72915 58,165.215233 C58,161.342367 59.3525523,157.596668 61.8155112,154.655938 C97.7793559,111.715819 156.447192,78.7246876 237.52295,55 L237.52295,55 Z"/>
    <g transform="translate(70 67)">
      <mask id="privacy-eu-e" fill="#fff">
        <use xlink:href="#privacy-eu-d"/>
      </mask>
      <use fill="#FFF" xlink:href="#privacy-eu-d"/>
      <g fill-rule="nonzero" mask="url(#privacy-eu-e)">
        <g transform="translate(57 58)">
          <circle cx="115.4" cy="115.4" r="115.4" fill="#4070FF"/>
          <path fill="#FFD426" d="M130.201568,169.743136 L127.465042,186.015797 L139.057143,197.540163 L123.037259,199.914315 L115.872951,214.719672 L108.708642,199.914315 L92.6887634,197.540163 L104.280855,186.015797 L101.544334,169.743136 L115.872951,177.426043 L130.201568,169.743136 Z M162.04192,144.185527 L171.388903,157.665559 L187.575702,157.454546 L177.893961,170.68652 L183.092726,186.322237 L167.762097,181.020013 L154.788307,190.894426 L154.995203,174.385501 L141.778197,164.852509 L157.236694,159.951656 L162.04192,144.185527 L162.04192,144.185527 Z M69.7039814,144.185527 L74.509208,159.951656 L89.967705,164.852509 L76.7506938,174.385501 L76.9575897,190.894426 L63.9838049,181.020013 L48.6531752,186.322237 L53.8519453,170.68652 L44.1701992,157.454546 L60.3569985,157.665559 L69.7039814,144.185527 L69.7039814,144.185527 Z M194.091767,94.1191853 L196.419594,110.457872 L210.936066,117.764754 L196.419594,125.071636 L194.091767,141.410318 L182.792266,129.587538 L166.837121,132.378518 L174.370117,117.764754 L166.837121,103.150991 L182.792266,105.941974 L194.091767,94.1191853 L194.091767,94.1191853 Z M37.654135,94.1191899 L48.9536311,105.94197 L64.9087809,103.150991 L57.375785,117.764754 L64.9087809,132.378518 L48.9536311,129.587534 L37.654135,141.410323 L35.3263081,125.071636 L20.8098361,117.764754 L35.3263081,110.457872 L37.654135,94.1191899 L37.654135,94.1191899 Z M154.788307,44.635082 L167.762097,54.5094997 L183.092726,49.2072715 L177.893961,64.8429884 L187.575702,78.0749625 L171.388903,77.8639492 L162.04192,91.343981 L157.236694,75.5778522 L141.778197,70.6769992 L154.995208,61.1440067 L154.788312,44.635082 L154.788307,44.635082 Z M76.9575942,44.635082 L76.7506982,61.1440067 L89.967705,70.6769992 L74.509208,75.5778522 L69.7039814,91.343981 L60.3569985,77.8639447 L44.1701992,78.074958 L53.8519453,64.8429884 L48.6531752,49.2072715 L63.9838049,54.5094997 L76.9575942,44.635082 L76.9575942,44.635082 Z M115.872951,20.8098361 L123.037259,35.6151931 L139.057138,37.9893449 L127.465047,49.5137066 L130.201568,65.7863719 L115.872951,58.1034656 L101.544334,65.7863719 L104.280859,49.5137066 L92.688759,37.9893449 L108.708642,35.6151931 L115.872951,20.8098361 Z"/>
        </g>
      </g>
      <path fill="url(#privacy-eu-f)" d="M177.072905,363.995628 C296.346206,321.391635 357,231.635315 357,98.2040046 C357,94.0957425 355.559996,90.1229913 352.940238,87.003764 C316.757325,43.9224213 257.73887,10.7948417 176.134809,-13 C174.355778,239.189271 174.668477,364.85448 177.072905,363.995628 Z" mask="url(#privacy-eu-e)" opacity=".3" style="mix-blend-mode:multiply"/>
    </g>
  </g>
</svg>
