<?xml version="1.0" encoding="UTF-8"?>
<svg width="24px" height="24px" viewBox="0 0 24 24" version="1.1" xmlns="http://www.w3.org/2000/svg" xmlns:xlink="http://www.w3.org/1999/xlink">
    <title>Icons/Versions</title>
    <g id="Icons/Versions" stroke="none" stroke-width="1" fill="none" fill-rule="evenodd">
        <path d="M12,2 C17.5228475,2 22,6.4771525 22,12 C22,17.5228475 17.5228475,22 12,22 C6.4771525,22 2,17.5228475 2,12 C2,11.4477153 2.44771525,11 3,11 C3.55228475,11 4,11.4477153 4,12 C4,16.418278 7.581722,20 12,20 C16.418278,20 20,16.418278 20,12 C20,7.581722 16.418278,4 12,4 C10.0200104,4 8.15640044,4.72147835 6.70956493,5.99879699 L6.70956493,5.99879699 L8,6 L8.11662113,6.00672773 C8.61395981,6.06449284 9,6.48716416 9,7 C9,7.55228475 8.55228475,8 8,8 L8,8 L4,8 L3.88337887,7.99327227 C3.38604019,7.93550716 3,7.51283584 3,7 L3,7 L3,3 L3.00672773,2.88337887 C3.06449284,2.38604019 3.48716416,2 4,2 L4,2 L4.11662113,2.00672773 C4.61395981,2.06449284 5,2.48716416 5,3 L5,3 L5.001,4.858 L5.16515251,4.7002726 C6.92206195,3.05413599 9.21502448,2.08655951 11.664978,2.00553422 Z M12,6 C12.5522847,6 13,6.44771525 13,7 L13,11.5857864 L15.7071068,14.2928932 C16.0976311,14.6834175 16.0976311,15.3165825 15.7071068,15.7071068 C15.3165825,16.0976311 14.6834175,16.0976311 14.2928932,15.7071068 L11,12.4142136 L11,7 C11,6.44771525 11.4477153,6 12,6 Z" id="Combined-Shape" fill="#000"></path>
    </g>
</svg>
