<?xml version="1.0" encoding="UTF-8"?> <svg xmlns="http://www.w3.org/2000/svg" xmlns:xlink="http://www.w3.org/1999/xlink" width="31px" height="32px" viewBox="0 0 31 32" version="1.1"><title>Collaborative editing</title><defs><filter color-interpolation-filters="auto" id="filter-1"><feColorMatrix in="SourceGraphic" type="matrix" values="0 0 0 0 1.000000 0 0 0 0 0.666667 0 0 0 0 0.000000 0 0 0 1.000000 0"></feColorMatrix></filter></defs><g id="Collaborative-editing" stroke="none" stroke-width="1" fill="none" fill-rule="evenodd"><g id="Icon" transform="translate(-1.000000, 0.000000)" filter="url(#filter-1)"><g><path d="M16,0.575008941 C18.9455187,0.575008941 21.3333333,2.96282361 21.3333333,5.90834227 L21.3333333,23.7676072 C21.3333333,24.2940739 21.1774986,24.8087611 20.8854675,25.2468078 L17.1094004,30.9109084 C16.7009304,31.5236133 15.8731047,31.6891784 15.2603997,31.2807085 C15.11393,31.183062 14.9882461,31.0573781 14.8905996,30.9109084 L11.1145325,25.2468078 C10.8225014,24.8087611 10.6666667,24.2940739 10.6666667,23.7676072 L10.6666667,5.90834227 C10.6666667,2.96282361 13.0544813,0.575008941 16,0.575008941 Z M18.6656667,9.90800894 L13.3326667,9.90800894 L13.3333333,23.9083423 L14,25.2416756 L18,25.2416756 L18.6666667,23.9083423 L18.6656667,9.90800894 Z M16,3.24167561 C14.5272407,3.24167561 13.3333333,4.43558294 13.3333333,5.90834227 L13.3333333,5.90834227 L13.3326667,7.24100894 L18.6656667,7.24100894 L18.6666667,5.90834227 C18.6666667,4.49222753 17.5628322,3.33392714 16.1686442,3.24692195 Z" id="Combined-Shape" fill="#3D474D" transform="translate(16.000000, 16.039896) rotate(-315.000000) translate(-16.000000, -16.039896) "></path></g></g></g></svg> 