<?xml version="1.0" encoding="UTF-8"?> <svg xmlns="http://www.w3.org/2000/svg" xmlns:xlink="http://www.w3.org/1999/xlink" width="24px" height="24px" viewBox="0 0 24 24" version="1.1"><title>Icons/Embed</title><g id="Icons/Embed" stroke="none" stroke-width="1" fill="none" fill-rule="evenodd"><path d="M16.590287,2 C18.8190838,2 19.6272994,2.23206403 20.4421143,2.66783176 C21.2569291,3.10359949 21.8964005,3.74307093 22.3321682,4.55788574 C22.767936,5.37270056 23,6.18091615 23,8.409713 L23,15.590287 C23,17.8190838 22.767936,18.6272994 22.3321682,19.4421143 C21.8964005,20.2569291 21.2569291,20.8964005 20.4421143,21.3321682 C19.6272994,21.767936 18.8190838,22 16.590287,22 L7.409713,22 C5.18091615,22 4.37270056,21.767936 3.55788574,21.3321682 C2.74307093,20.8964005 2.10359949,20.2569291 1.66783176,19.4421143 C1.23206403,18.6272994 1,17.8190838 1,15.590287 L1,8.409713 C1,6.18091615 1.23206403,5.37270056 1.66783176,4.55788574 C2.10359949,3.74307093 2.74307093,3.10359949 3.55788574,2.66783176 C4.37270056,2.23206403 5.18091615,2 7.409713,2 L16.590287,2 Z M6.8458278,4 C5.50854969,4 5.02362033,4.13923842 4.53473144,4.40069906 C4.04584256,4.66215969 3.66215969,5.04584256 3.40069906,5.53473144 C3.13923842,6.02362033 3,6.50854969 3,7.8458278 L3,7.8458278 L3,16.1541722 C3,17.4914503 3.13923842,17.9763797 3.40069906,18.4652686 C3.66215969,18.9541574 4.04584256,19.3378403 4.53473144,19.5993009 C5.02362033,19.8607616 5.50854969,20 6.8458278,20 L6.8458278,20 L17.1541722,20 C18.4914503,20 18.9763797,19.8607616 19.4652686,19.5993009 C19.9541574,19.3378403 20.3378403,18.9541574 20.5993009,18.4652686 C20.8607616,17.9763797 21,17.4914503 21,16.1541722 L21,16.1541722 L21,7.8458278 C21,6.50854969 20.8607616,6.02362033 20.5993009,5.53473144 C20.3378403,5.04584256 19.9541574,4.66215969 19.4652686,4.40069906 C18.9763797,4.13923842 18.4914503,4 17.1541722,4 L17.1541722,4 Z M8.58578644,8 C8.97631073,7.60947571 9.60947571,7.60947571 10,8 C10.3905243,8.39052429 10.3905243,9.02368927 10,9.41421356 L10,9.41421356 L7.76776695,11.6464466 C7.57250481,11.8417088 7.57250481,12.1582912 7.76776695,12.3535534 L7.76776695,12.3535534 L10,14.5857864 C10.3905243,14.9763107 10.3905243,15.6094757 10,16 C9.60947571,16.3905243 8.97631073,16.3905243 8.58578644,16 L8.58578644,16 L5.29289322,12.7071068 C4.90236893,12.3165825 4.90236893,11.6834175 5.29289322,11.2928932 L5.29289322,11.2928932 Z M14,8 C14.3905243,7.60947571 15.0236893,7.60947571 15.4142136,8 L15.4142136,8 L18.7071068,11.2928932 C19.0976311,11.6834175 19.0976311,12.3165825 18.7071068,12.7071068 L18.7071068,12.7071068 L15.4142136,16 C15.0236893,16.3905243 14.3905243,16.3905243 14,16 C13.6094757,15.6094757 13.6094757,14.9763107 14,14.5857864 L14,14.5857864 L16.232233,12.3535534 C16.4274952,12.1582912 16.4274952,11.8417088 16.232233,11.6464466 L16.232233,11.6464466 L14,9.41421356 C13.6094757,9.02368927 13.6094757,8.39052429 14,8 Z" id="Combined-Shape" fill="#00AAFF"></path></g></svg> 