<?xml version="1.0" encoding="UTF-8"?> <svg xmlns="http://www.w3.org/2000/svg" xmlns:xlink="http://www.w3.org/1999/xlink" width="56px" height="56px" viewBox="0 0 56 56" version="1.1"><title>Grip Icon</title><defs><filter color-interpolation-filters="auto" id="filter-1"><feColorMatrix in="SourceGraphic" type="matrix" values="0 0 0 0 0.250000 0 0 0 0 0.437500 0 0 0 0 1.000000 0 0 0 1.000000 0"></feColorMatrix></filter></defs><g id="Grip-Icon" stroke="none" stroke-width="1" fill="none" fill-rule="evenodd"><g id="Icons/GenericPlaceholder" filter="url(#filter-1)"><g><path d="M22.1666667,37.3333333 C24.0996633,37.3333333 25.6666667,38.9003367 25.6666667,40.8333333 C25.6666667,42.76633 24.0996633,44.3333333 22.1666667,44.3333333 C20.23367,44.3333333 18.6666667,42.76633 18.6666667,40.8333333 C18.6666667,38.9003367 20.23367,37.3333333 22.1666667,37.3333333 Z M33.8333333,37.3333333 C35.76633,37.3333333 37.3333333,38.9003367 37.3333333,40.8333333 C37.3333333,42.76633 35.76633,44.3333333 33.8333333,44.3333333 C31.9003367,44.3333333 30.3333333,42.76633 30.3333333,40.8333333 C30.3333333,38.9003367 31.9003367,37.3333333 33.8333333,37.3333333 Z M22.1666667,24.5 C24.0996633,24.5 25.6666667,26.0670034 25.6666667,28 C25.6666667,29.9329966 24.0996633,31.5 22.1666667,31.5 C20.23367,31.5 18.6666667,29.9329966 18.6666667,28 C18.6666667,26.0670034 20.23367,24.5 22.1666667,24.5 Z M33.8333333,24.5 C35.76633,24.5 37.3333333,26.0670034 37.3333333,28 C37.3333333,29.9329966 35.76633,31.5 33.8333333,31.5 C31.9003367,31.5 30.3333333,29.9329966 30.3333333,28 C30.3333333,26.0670034 31.9003367,24.5 33.8333333,24.5 Z M22.1666667,11.6666667 C24.0996633,11.6666667 25.6666667,13.23367 25.6666667,15.1666667 C25.6666667,17.0996633 24.0996633,18.6666667 22.1666667,18.6666667 C20.23367,18.6666667 18.6666667,17.0996633 18.6666667,15.1666667 C18.6666667,13.23367 20.23367,11.6666667 22.1666667,11.6666667 Z M33.8333333,11.6666667 C35.76633,11.6666667 37.3333333,13.23367 37.3333333,15.1666667 C37.3333333,17.0996633 35.76633,18.6666667 33.8333333,18.6666667 C31.9003367,18.6666667 30.3333333,17.0996633 30.3333333,15.1666667 C30.3333333,13.23367 31.9003367,11.6666667 33.8333333,11.6666667 Z" id="Combined-Shape" fill="#3D474D"></path></g></g></g></svg> 