<svg xmlns="http://www.w3.org/2000/svg" width="100%" height="100%" viewBox="0 0 24 24">
  <path fill="#000" fill-rule="evenodd" d="M15,1 C16.6568542,1 18,2.34314575 18,4 L18,6 L22.4142136,10.4142136 C22.7892863,10.7892863 23,11.2979941 23,11.8284271 L23,20 C23,21.6568542 21.6568542,23 20,23 L9,23 C7.34314575,23 6,21.6568542 6,20 L4,20 C2.34314575,20 1,18.6568542 1,17 L1,4 C1,2.34314575 2.34314575,1 4,1 L15,1 Z M15,6 L9,6 C8.44771525,6 8,6.44771525 8,7 L8,20 C8,20.5522847 8.44771525,21 9,21 L20,21 C20.5522847,21 21,20.5522847 21,20 L21,12 C21,11.4477153 20.5522847,11 20,11 L17,11 C16.4477153,11 16,10.5522847 16,10 L16,7 C16,6.44771525 15.5522847,6 15,6 Z M15,3 L4,3 C3.44771525,3 3,3.44771525 3,4 L3,4 L3,17 C3,17.5522847 3.44771525,18 4,18 L4,18 L5.999,18 L6,7 C6,5.34314575 7.34314575,4 9,4 L15.1715729,4 C15.4603642,4 15.7427157,4.0624597 16.000567,4.1798982 L16,4 C16,3.44771525 15.5522847,3 15,3 L15,3 Z"/>
</svg>
