<?xml version="1.0" encoding="UTF-8"?>
<svg width="24px" height="24px" viewBox="0 0 24 24" version="1.1" xmlns="http://www.w3.org/2000/svg" xmlns:xlink="http://www.w3.org/1999/xlink">
    <title>Icons/Grip</title>
    <g id="Icons/Grip" stroke="none" stroke-width="1" fill="none" fill-rule="evenodd">
        <path d="M9.5,16 C10.3284271,16 11,16.6715729 11,17.5 C11,18.3284271 10.3284271,19 9.5,19 C8.67157288,19 8,18.3284271 8,17.5 C8,16.6715729 8.67157288,16 9.5,16 Z M14.5,16 C15.3284271,16 16,16.6715729 16,17.5 C16,18.3284271 15.3284271,19 14.5,19 C13.6715729,19 13,18.3284271 13,17.5 C13,16.6715729 13.6715729,16 14.5,16 Z M9.5,10.5 C10.3284271,10.5 11,11.1715729 11,12 C11,12.8284271 10.3284271,13.5 9.5,13.5 C8.67157288,13.5 8,12.8284271 8,12 C8,11.1715729 8.67157288,10.5 9.5,10.5 Z M14.5,10.5 C15.3284271,10.5 16,11.1715729 16,12 C16,12.8284271 15.3284271,13.5 14.5,13.5 C13.6715729,13.5 13,12.8284271 13,12 C13,11.1715729 13.6715729,10.5 14.5,10.5 Z M9.5,5 C10.3284271,5 11,5.67157288 11,6.5 C11,7.32842712 10.3284271,8 9.5,8 C8.67157288,8 8,7.32842712 8,6.5 C8,5.67157288 8.67157288,5 9.5,5 Z M14.5,5 C15.3284271,5 16,5.67157288 16,6.5 C16,7.32842712 15.3284271,8 14.5,8 C13.6715729,8 13,7.32842712 13,6.5 C13,5.67157288 13.6715729,5 14.5,5 Z" id="Combined-Shape" fill="#000"></path>
    </g>
</svg>
