<?xml version="1.0" encoding="UTF-8"?>
<svg width="32px" height="49px" viewBox="0 0 32 49" version="1.1" xmlns="http://www.w3.org/2000/svg" xmlns:xlink="http://www.w3.org/1999/xlink">
    <title>Group 25</title>
    <g id="Mara" stroke="none" stroke-width="1" fill="none" fill-rule="evenodd">
        <g id="MN-Homepage" transform="translate(-204.000000, -7541.000000)" fill-rule="nonzero">
            <g id="Group-25" transform="translate(204.000000, 7541.413462)">
                <path d="M8,48 C12.416,48 16,44.4131533 16,39.9936458 L16,31.9872915 L8,31.9872915 C3.584,31.9872915 0,35.5741382 0,39.9936458 C0,44.4131533 3.584,48 8,48 Z" id="path0_fill" fill="#0ACF83"></path>
                <path d="M0,24.0190627 C0,19.5995552 3.584,16.0127085 8,16.0127085 L16,16.0127085 L16,32.025417 L8,32.025417 C3.584,32.025417 0,28.4385703 0,24.0190627 Z" id="path1_fill" fill="#A259FF"></path>
                <path d="M0,8.00635425 C0,3.5868467 3.584,0 8,0 L16,0 L16,16.0127085 L8,16.0127085 C3.584,16.0127085 0,12.4258618 0,8.00635425 Z" id="path1_fill_1_" fill="#F24E1E"></path>
                <path d="M16,0 L24,0 C28.416,0 32,3.5868467 32,8.00635425 C32,12.4258618 28.416,16.0127085 24,16.0127085 L16,16.0127085 L16,0 Z" id="path2_fill" fill="#FF7262"></path>
                <path d="M32,24.0190627 C32,28.4385703 28.416,32.025417 24,32.025417 C19.584,32.025417 16,28.4385703 16,24.0190627 C16,19.5995552 19.584,16.0127085 24,16.0127085 C28.416,16.0127085 32,19.5995552 32,24.0190627 Z" id="path3_fill" fill="#1ABCFE"></path>
            </g>
        </g>
    </g>
</svg>