<?xml version="1.0" encoding="UTF-8"?>
<svg width="36px" height="45px" viewBox="0 0 36 45" version="1.1" xmlns="http://www.w3.org/2000/svg" xmlns:xlink="http://www.w3.org/1999/xlink">
    <title>Icons/Files/Sheets</title>
    <defs>
        <linearGradient x1="0%" y1="0%" x2="98.2421875%" y2="98.2421875%" id="linearGradient-1">
            <stop stop-color="#7EE87E" offset="0%"></stop>
            <stop stop-color="#3DCC3D" offset="100%"></stop>
        </linearGradient>
    </defs>
    <g id="Mara" stroke="none" stroke-width="1" fill="none" fill-rule="evenodd">
        <g id="MN-Homepage" transform="translate(-1202.000000, -7543.000000)">
            <g id="Icons/Files/Sheets" transform="translate(1196.000000, 7541.413462)">
                <path d="M9.8458278,2 L28.5215815,2 C29.5544139,2 29.9116894,2.03739717 30.3076729,2.12866159 C30.7036565,2.219926 31.0540353,2.36505766 31.3985717,2.58052664 C31.743108,2.79599562 32.0221837,3.02218372 32.7525065,3.75250653 L40.2474935,11.2474935 C40.9778163,11.9778163 41.2040044,12.256892 41.4194734,12.6014283 C41.6349423,12.9459647 41.780074,13.2963435 41.8713384,13.6923271 C41.9626028,14.0883106 42,14.4455861 42,15.4784185 L42,42.1541722 C42,43.4914503 41.8607616,43.9763797 41.5993009,44.4652686 C41.3378403,44.9541574 40.9541574,45.3378403 40.4652686,45.5993009 C39.9763797,45.8607616 39.4914503,46 38.1541722,46 L9.8458278,46 C8.50854969,46 8.02362033,45.8607616 7.53473144,45.5993009 C7.04584256,45.3378403 6.66215969,44.9541574 6.40069906,44.4652686 C6.13923842,43.9763797 6,43.4914503 6,42.1541722 L6,5.8458278 C6,4.50854969 6.13923842,4.02362033 6.40069906,3.53473144 C6.66215969,3.04584256 7.04584256,2.66215969 7.53473144,2.40069906 C8.02362033,2.13923842 8.50854969,2 9.8458278,2 Z" id="Page" fill="#3DCC3D"></path>
                <polygon id="Shadow" fill="#000000" opacity="0.100000001" points="30 14 42 14 42 26"></polygon>
                <path d="M30.3076729,2.12866159 C30.7036565,2.219926 31.0540353,2.36505766 31.3985717,2.58052664 C31.743108,2.79599562 32.0221837,3.02218372 32.7525065,3.75250653 L40.2474935,11.2474935 C40.9778163,11.9778163 41.2040044,12.256892 41.4194734,12.6014283 C41.6349423,12.9459647 41.780074,13.2963435 41.8713384,13.6923271 C41.8945891,13.7932086 41.9143436,13.8915778 41.9308743,13.9992451 L30,14 L30.0001782,2.06903721 C30.108071,2.08558586 30.2066113,2.10536939 30.3076729,2.12866159 Z" id="Page-Curl" fill="url(#linearGradient-1)"></path>
                <g id="Group" transform="translate(14.000000, 18.000000)" fill="#FFFFFF">
                    <path d="M20.008845,0 C21.1085295,0 22,0.898212381 22,1.99079514 L22,18.0092049 C22,19.1086907 21.1103261,20 20.008845,20 L1.991155,20 C0.891470458,20 0,19.1017876 0,18.0092049 L0,1.99079514 C0,0.891309342 0.889673948,0 1.991155,0 L20.008845,0 Z M19.4997903,2 L2.50020972,2 C2.22758651,2 2,2.22224281 2,2.4963932 L2,2.4963932 L2,17.5036068 C2,17.773819 2.22395152,18 2.50020972,18 L2.50020972,18 L19.4997903,18 C19.7724135,18 20,17.7777572 20,17.5036068 L20,17.5036068 L20,2.4963932 C20,2.22618103 19.7760485,2 19.4997903,2 L19.4997903,2 Z" id="Combined-Shape"></path>
                    <rect id="Rectangle" x="2" y="6" width="20" height="2"></rect>
                    <rect id="Rectangle" x="8" y="0" width="2" height="18"></rect>
                    <rect id="Rectangle" x="2" y="12" width="20" height="2"></rect>
                </g>
            </g>
        </g>
    </g>
</svg>