<?xml version="1.0" encoding="UTF-8"?>
<svg width="24px" height="24px" viewBox="0 0 24 24" version="1.1" xmlns="http://www.w3.org/2000/svg" xmlns:xlink="http://www.w3.org/1999/xlink">
    <title>Icons/Keyboard</title>
    <g id="Icons/Keyboard" stroke="none" stroke-width="1" fill="none" fill-rule="evenodd">
        <path d="M17.590287,3 C19.8190838,3 20.6272994,3.23206403 21.4421143,3.66783176 C22.2569291,4.10359949 22.8964005,4.74307093 23.3321682,5.55788574 C23.767936,6.37270056 24,7.18091615 24,9.409713 L24,14.590287 C24,16.8190838 23.767936,17.6272994 23.3321682,18.4421143 C22.8964005,19.2569291 22.2569291,19.8964005 21.4421143,20.3321682 C20.6272994,20.767936 19.8190838,21 17.590287,21 L6.409713,21 C4.18091615,21 3.37270056,20.767936 2.55788574,20.3321682 C1.74307093,19.8964005 1.10359949,19.2569291 0.667831759,18.4421143 C0.232064028,17.6272994 3.63757216e-16,16.8190838 -6.26057121e-16,14.590287 L1.72640051e-16,9.409713 C-1.00308841e-16,7.18091615 0.232064028,6.37270056 0.667831759,5.55788574 C1.10359949,4.74307093 1.74307093,4.10359949 2.55788574,3.66783176 C3.37270056,3.23206403 4.18091615,3 6.409713,3 L17.590287,3 Z M5.8458278,5 C4.50854969,5 4.02362033,5.13923842 3.53473144,5.40069906 C3.04584256,5.66215969 2.66215969,6.04584256 2.40069906,6.53473144 C2.15557971,6.99306478 2.01788223,7.44791805 2.00162755,8.60486756 L2,8.8458278 L2,15.1541722 C2,16.4914503 2.13923842,16.9763797 2.40069906,17.4652686 C2.66215969,17.9541574 3.04584256,18.3378403 3.53473144,18.5993009 C3.99306478,18.8444203 4.44791805,18.9821178 5.60486756,18.9983725 L5.8458278,19 L18.1541722,19 C19.4914503,19 19.9763797,18.8607616 20.4652686,18.5993009 C20.9541574,18.3378403 21.3378403,17.9541574 21.5993009,17.4652686 C21.8444203,17.0069352 21.9821178,16.5520819 21.9983725,15.3951324 L22,15.1541722 L22,8.8458278 C22,7.50854969 21.8607616,7.02362033 21.5993009,6.53473144 C21.3378403,6.04584256 20.9541574,5.66215969 20.4652686,5.40069906 C20.0069352,5.15557971 19.5520819,5.01788223 18.3951324,5.00162755 L18.1541722,5 L5.8458278,5 Z M18,15 C18.5522847,15 19,15.4477153 19,16 C19,16.5522847 18.5522847,17 18,17 L6,17 C5.44771525,17 5,16.5522847 5,16 C5,15.4477153 5.44771525,15 6,15 L18,15 Z M16.3590287,11 C16.5819084,11 16.6627299,11.0232064 16.7442114,11.0667832 C16.8256929,11.1103599 16.8896401,11.1743071 16.9332168,11.2557886 C16.9767936,11.3372701 17,11.4180916 17,11.6409713 L17,12.3590287 C17,12.5819084 16.9767936,12.6627299 16.9332168,12.7442114 C16.8896401,12.8256929 16.8256929,12.8896401 16.7442114,12.9332168 C16.6627299,12.9767936 16.5819084,13 16.3590287,13 L15.6409713,13 C15.4180916,13 15.3372701,12.9767936 15.2557886,12.9332168 C15.1743071,12.8896401 15.1103599,12.8256929 15.0667832,12.7442114 C15.0232064,12.6627299 15,12.5819084 15,12.3590287 L15,11.6409713 C15,11.4180916 15.0232064,11.3372701 15.0667832,11.2557886 C15.1103599,11.1743071 15.1743071,11.1103599 15.2557886,11.0667832 C15.3372701,11.0232064 15.4180916,11 15.6409713,11 L16.3590287,11 Z M8.3590287,11 C8.58190838,11 8.66272994,11.0232064 8.74421143,11.0667832 C8.82569291,11.1103599 8.88964005,11.1743071 8.93321682,11.2557886 C8.9767936,11.3372701 9,11.4180916 9,11.6409713 L9,12.3590287 C9,12.5819084 8.9767936,12.6627299 8.93321682,12.7442114 C8.88964005,12.8256929 8.82569291,12.8896401 8.74421143,12.9332168 C8.66272994,12.9767936 8.58190838,13 8.3590287,13 L7.6409713,13 C7.41809162,13 7.33727006,12.9767936 7.25578857,12.9332168 C7.17430709,12.8896401 7.11035995,12.8256929 7.06678318,12.7442114 C7.0232064,12.6627299 7,12.5819084 7,12.3590287 L7,11.6409713 C7,11.4180916 7.0232064,11.3372701 7.06678318,11.2557886 C7.11035995,11.1743071 7.17430709,11.1103599 7.25578857,11.0667832 C7.33727006,11.0232064 7.41809162,11 7.6409713,11 L8.3590287,11 Z M12.3590287,11 C12.5819084,11 12.6627299,11.0232064 12.7442114,11.0667832 C12.8256929,11.1103599 12.8896401,11.1743071 12.9332168,11.2557886 C12.9767936,11.3372701 13,11.4180916 13,11.6409713 L13,12.3590287 C13,12.5819084 12.9767936,12.6627299 12.9332168,12.7442114 C12.8896401,12.8256929 12.8256929,12.8896401 12.7442114,12.9332168 C12.6627299,12.9767936 12.5819084,13 12.3590287,13 L11.6409713,13 C11.4180916,13 11.3372701,12.9767936 11.2557886,12.9332168 C11.1743071,12.8896401 11.1103599,12.8256929 11.0667832,12.7442114 C11.0232064,12.6627299 11,12.5819084 11,12.3590287 L11,11.6409713 C11,11.4180916 11.0232064,11.3372701 11.0667832,11.2557886 C11.1103599,11.1743071 11.1743071,11.1103599 11.2557886,11.0667832 C11.3372701,11.0232064 11.4180916,11 11.6409713,11 L12.3590287,11 Z M14.3590287,8 C14.5819084,8 14.6627299,8.0232064 14.7442114,8.06678318 C14.8256929,8.11035995 14.8896401,8.17430709 14.9332168,8.25578857 C14.9767936,8.33727006 15,8.41809162 15,8.6409713 L15,9.3590287 C15,9.58190838 14.9767936,9.66272994 14.9332168,9.74421143 C14.8896401,9.82569291 14.8256929,9.88964005 14.7442114,9.93321682 C14.6627299,9.9767936 14.5819084,10 14.3590287,10 L13.6409713,10 C13.4180916,10 13.3372701,9.9767936 13.2557886,9.93321682 C13.1743071,9.88964005 13.1103599,9.82569291 13.0667832,9.74421143 C13.0232064,9.66272994 13,9.58190838 13,9.3590287 L13,8.6409713 C13,8.41809162 13.0232064,8.33727006 13.0667832,8.25578857 C13.1103599,8.17430709 13.1743071,8.11035995 13.2557886,8.06678318 C13.3372701,8.0232064 13.4180916,8 13.6409713,8 L14.3590287,8 Z M6.3590287,8 C6.58190838,8 6.66272994,8.0232064 6.74421143,8.06678318 C6.82569291,8.11035995 6.88964005,8.17430709 6.93321682,8.25578857 C6.9767936,8.33727006 7,8.41809162 7,8.6409713 L7,9.3590287 C7,9.58190838 6.9767936,9.66272994 6.93321682,9.74421143 C6.88964005,9.82569291 6.82569291,9.88964005 6.74421143,9.93321682 C6.66272994,9.9767936 6.58190838,10 6.3590287,10 L5.6409713,10 C5.41809162,10 5.33727006,9.9767936 5.25578857,9.93321682 C5.17430709,9.88964005 5.11035995,9.82569291 5.06678318,9.74421143 C5.0232064,9.66272994 5,9.58190838 5,9.3590287 L5,8.6409713 C5,8.41809162 5.0232064,8.33727006 5.06678318,8.25578857 C5.11035995,8.17430709 5.17430709,8.11035995 5.25578857,8.06678318 C5.33727006,8.0232064 5.41809162,8 5.6409713,8 L6.3590287,8 Z M10.3590287,8 C10.5819084,8 10.6627299,8.0232064 10.7442114,8.06678318 C10.8256929,8.11035995 10.8896401,8.17430709 10.9332168,8.25578857 C10.9767936,8.33727006 11,8.41809162 11,8.6409713 L11,9.3590287 C11,9.58190838 10.9767936,9.66272994 10.9332168,9.74421143 C10.8896401,9.82569291 10.8256929,9.88964005 10.7442114,9.93321682 C10.6627299,9.9767936 10.5819084,10 10.3590287,10 L9.6409713,10 C9.41809162,10 9.33727006,9.9767936 9.25578857,9.93321682 C9.17430709,9.88964005 9.11035995,9.82569291 9.06678318,9.74421143 C9.0232064,9.66272994 9,9.58190838 9,9.3590287 L9,8.6409713 C9,8.41809162 9.0232064,8.33727006 9.06678318,8.25578857 C9.11035995,8.17430709 9.17430709,8.11035995 9.25578857,8.06678318 C9.33727006,8.0232064 9.41809162,8 9.6409713,8 L10.3590287,8 Z M18.3590287,8 C18.5819084,8 18.6627299,8.0232064 18.7442114,8.06678318 C18.8256929,8.11035995 18.8896401,8.17430709 18.9332168,8.25578857 C18.9767936,8.33727006 19,8.41809162 19,8.6409713 L19,9.3590287 C19,9.58190838 18.9767936,9.66272994 18.9332168,9.74421143 C18.8896401,9.82569291 18.8256929,9.88964005 18.7442114,9.93321682 C18.6627299,9.9767936 18.5819084,10 18.3590287,10 L17.6409713,10 C17.4180916,10 17.3372701,9.9767936 17.2557886,9.93321682 C17.1743071,9.88964005 17.1103599,9.82569291 17.0667832,9.74421143 C17.0232064,9.66272994 17,9.58190838 17,9.3590287 L17,8.6409713 C17,8.41809162 17.0232064,8.33727006 17.0667832,8.25578857 C17.1103599,8.17430709 17.1743071,8.11035995 17.2557886,8.06678318 C17.3372701,8.0232064 17.4180916,8 17.6409713,8 L18.3590287,8 Z" id="Combined-Shape" fill="#000"></path>
    </g>
</svg>
