<svg xmlns="http://www.w3.org/2000/svg" width="24" height="24" viewBox="0 0 24 24"><g fill="none" fill-rule="evenodd" transform="translate(-4 .275)"><g stroke="#000" stroke-linejoin="round" stroke-width="2" transform="rotate(45 8.113 19.585)"><path d="M14.2099495,2.96293833 L14.4240437,11.3126137 C14.4666085,12.9726402 13.4193957,14.4655447 11.8440386,14.9906638 L11.7048304,15.0370665 C10.2695012,15.5155096 9.41505387,16.9878758 9.71177167,18.4714648 L10.121239,20.5188017 C10.3409944,21.6175783 9.62840682,22.6864596 8.5296302,22.906215 C8.39861694,22.9324176 8.26533581,22.945615 8.13172798,22.945615 C7.0111913,22.945615 6.10281684,22.0372406 6.10281684,20.9167039 C6.10281684,20.7830961 6.11601427,20.6498149 6.14221692,20.5188017 L6.5516843,18.4714648 C6.84840209,16.9878758 5.99395476,15.5155096 4.55862557,15.0370665 L4.41941738,14.9906638 C2.91802493,14.4901996 1.95550105,13.0256937 2.0916876,11.4489576 C2.49582683,6.76985789 1.79859763,3.53100924 5.04870979e-29,1.73241161 C3.63578663,0.392911278 7.42692846,-0.169813001 11.3734255,0.0442387768 C12.9352148,0.128961659 14.1698579,1.39936661 14.2099495,2.96293833 Z"/><line x1="1.768" x2="14.496" y1="10.571" y2="10.571"/></g><path fill="#000" d="M24.5 22.725C26 22.725 27 21.6057119 27 20.225 27 19.3064942 26.2969558 17.9661618 24.8908675 16.204003L24.8909161 16.2039642C24.7186618 15.9880892 24.4040208 15.9527275 24.1881458 16.1249818 24.1589516 16.1482769 24.1324591 16.1747693 24.109164 16.2039635 22.7030547 17.9661418 22 19.3064873 22 20.225 22 21.725 23 22.725 24.5 22.725ZM18 3.725C18 4.61261935 17.2121319 6.28810681 15.6363957 8.75146238L15.6363351 8.75142365C15.5619131 8.86776789 15.5958978 9.02241448 15.7122421 9.09683648 15.7952873 9.14995806 15.9017923 9.14933361 15.9842089 9.09524191 18.080933 7.71911891 19.41953 6.59570494 20 5.725 21 4.225 19.5 3.725 18 3.725Z"/></g></svg>
